<?xml version="1.0" encoding="utf-8"?>
<!-- Generator: Adobe Illustrator 23.0.0, SVG Export Plug-In . SVG Version: 6.00 Build 0)  -->
<svg version="1.1" id="Ebene_1" xmlns="http://www.w3.org/2000/svg" xmlns:xlink="http://www.w3.org/1999/xlink" x="0px" y="0px"
	 viewBox="0 0 568 568" style="enable-background:new 0 0 568 568;" xml:space="preserve">
<style type="text/css">
	.st0{stroke:#000000;stroke-width:40;stroke-miterlimit:10;}
	.st1{fill:url(#SVGID_1_);}
	.st2{fill:url(#SVGID_2_);}
	.st3{fill:url(#SVGID_3_);}
	.st4{fill:url(#SVGID_4_);}
	.st5{fill:url(#SVGID_5_);}
	.st6{fill:url(#SVGID_6_);}
	.st7{fill:url(#SVGID_7_);}
	.st8{fill:url(#SVGID_8_);}
	.st9{fill:url(#SVGID_9_);}
	.st10{fill:#CCCCCC;}
	.st11{fill:url(#SVGID_10_);}
	.st12{fill:url(#SVGID_11_);}
	.st13{fill:url(#SVGID_12_);}
</style>
<path class="st0" d="M539.5,452.3l-37.9-165.7V91.1c0-11.1-9-20.1-20.1-20.1H472H366.8V60.9c0-10.4-8.4-18.8-18.8-18.8
	c-10.4,0-18.8,8.4-18.8,18.8V71h-98.7V60.9c0-10.4-8.4-18.8-18.8-18.8c-10.4,0-18.8,8.4-18.8,18.8V71H86.5c-11.1,0-20.1,9-20.1,20.1
	v195.5L28.5,452.3c-2.9,12.6,6.7,24.6,19.6,24.6h18.3v0.7v28.1v0c0,2.1,0.3,4.1,0.9,6c0.2,0.6,0.4,1.2,0.7,1.8
	c0.5,1.2,1.1,2.3,1.9,3.4c3.6,5.3,9.7,8.9,16.7,8.9h28.1h366.8h0.1c11.1,0,20.1-9,20.1-20.1v-28.8h8.8h9.5c0.8,0,1.6,0,2.4-0.1
	C534,475.4,542.2,464.1,539.5,452.3z"/>
<g id="Capa_1_1_">
	
		<linearGradient id="SVGID_1_" gradientUnits="userSpaceOnUse" x1="164.9135" y1="536.1831" x2="403.0865" y2="6.9169" gradientTransform="matrix(1 0 0 -1 0 570)">
		<stop  offset="0" style="stop-color:#885E69"/>
		<stop  offset="0.1293" style="stop-color:#855264"/>
		<stop  offset="0.4046" style="stop-color:#7F405D"/>
		<stop  offset="0.6903" style="stop-color:#7C3558"/>
		<stop  offset="1" style="stop-color:#7B3157"/>
	</linearGradient>
	<path class="st1" d="M481.5,71h-395c-11.1,0-20.1,9-20.1,20.1v414.6c0,11.1,9,20.1,20.1,20.1h395c11.1,0,20.1-9,20.1-20.1V91.1
		C501.6,80,492.6,71,481.5,71z"/>
	
		<linearGradient id="SVGID_2_" gradientUnits="userSpaceOnUse" x1="72.229" y1="113.6913" x2="352.319" y2="-189.0687" gradientTransform="matrix(1.0667 0 0 -1.0667 58.2275 361.4006)">
		<stop  offset="0" style="stop-color:#C2CECE"/>
		<stop  offset="1" style="stop-color:#97AAAA"/>
	</linearGradient>
	<path class="st2" d="M481.5,525.8h-395c-11.1,0-20.1-9-20.1-20.1V288h435.1v217.7C501.6,516.8,492.6,525.8,481.5,525.8z"/>
	
		<linearGradient id="SVGID_3_" gradientUnits="userSpaceOnUse" x1="211.6086" y1="-148.8572" x2="211.6086" y2="-107.0771" gradientTransform="matrix(1.0667 0 0 -1.0667 58.2275 361.4006)">
		<stop  offset="0" style="stop-color:#C2CECE;stop-opacity:0"/>
		<stop  offset="0.179" style="stop-color:#AFBCBC;stop-opacity:0.179"/>
		<stop  offset="1" style="stop-color:#5B6A6A"/>
	</linearGradient>
	<path class="st3" d="M481.5,525.8h-395c-11.1,0-20.1-9-20.1-20.1v-42.2h435.1v42.2C501.6,516.8,492.6,525.8,481.5,525.8z"/>
	
		<linearGradient id="SVGID_4_" gradientUnits="userSpaceOnUse" x1="36.4572" y1="54.9835" x2="485.8572" y2="-147.4265" gradientTransform="matrix(1.0667 0 0 -1.0667 58.2275 361.4006)">
		<stop  offset="0" style="stop-color:#00A6F9"/>
		<stop  offset="1" style="stop-color:#0071E2"/>
	</linearGradient>
	<path class="st4" d="M519.9,476.9H48.1c-12.9,0-22.5-12-19.6-24.6l37.9-165.7h435.1l37.9,165.7
		C542.4,464.9,532.8,476.9,519.9,476.9z"/>
	
		<linearGradient id="SVGID_5_" gradientUnits="userSpaceOnUse" x1="211.6235" y1="-91.1672" x2="211.6235" y2="-116.2872" gradientTransform="matrix(1.0667 0 0 -1.0667 58.2275 361.4006)">
		<stop  offset="1.000000e-04" style="stop-color:#7F405D"/>
		<stop  offset="1" style="stop-color:#763B61"/>
	</linearGradient>
	<path class="st5" d="M519.9,476.9H48.1c-12.9,0-22.5-12-19.6-24.6l37.9-165.7h435.1l37.9,165.7
		C542.4,464.9,532.8,476.9,519.9,476.9z"/>
	
		<linearGradient id="SVGID_6_" gradientUnits="userSpaceOnUse" x1="296.8906" y1="-15.159" x2="12.1796" y2="269.551" gradientTransform="matrix(1.0667 0 0 -1.0667 58.2275 361.4006)">
		<stop  offset="1.000000e-04" style="stop-color:#81455F"/>
		<stop  offset="1" style="stop-color:#613447"/>
	</linearGradient>
	<path class="st6" d="M519.9,476.9c12.9,0,22.5-12,19.6-24.6l-37.9-165.7H66.4l190.2,190.2h263.3V476.9z"/>
	
		<linearGradient id="SVGID_7_" gradientUnits="userSpaceOnUse" x1="181.7037" y1="-71.5741" x2="135.0538" y2="-13.8241" gradientTransform="matrix(1.0667 0 0 -1.0667 58.2275 361.4006)">
		<stop  offset="0" style="stop-color:#C2CECE;stop-opacity:0"/>
		<stop  offset="0.179" style="stop-color:#AFBCBC;stop-opacity:0.179"/>
		<stop  offset="1" style="stop-color:#5B6A6A"/>
	</linearGradient>
	<path class="st7" d="M501.6,476.9H66.4v0.7l48.2,48.2h366.8c11.1,0,20.1-9,20.1-20.1v-28.8H501.6z"/>
	
		<linearGradient id="SVGID_8_" gradientUnits="userSpaceOnUse" x1="416.0677" y1="83.1086" x2="319.9677" y2="57.9886" gradientTransform="matrix(1.0667 0 0 -1.0667 58.2275 361.4006)">
		<stop  offset="1.000000e-04" style="stop-color:#7B3157;stop-opacity:0"/>
		<stop  offset="1" style="stop-color:#7B3157"/>
	</linearGradient>
	<path class="st8" d="M539.5,452.3l-37.9-165.6V91.1c0-11.1-9-20.1-20.1-20.1H472c11.1,0,20.1,9,20.1,20.1v195.6L530,452.3
		c2.9,12.6-6.7,24.6-19.6,24.6h9.5C532.8,476.9,542.4,464.9,539.5,452.3z"/>
	
		<linearGradient id="SVGID_9_" gradientUnits="userSpaceOnUse" x1="179.7139" y1="222.2943" x2="142.4839" y2="259.5233" gradientTransform="matrix(1.0667 0 0 -1.0667 58.2275 361.4006)">
		<stop  offset="1.000026e-04" style="stop-color:#7B3157;stop-opacity:0"/>
		<stop  offset="1" style="stop-color:#7B3157"/>
	</linearGradient>
	<path class="st9" d="M198.9,106.8c-3.7-3.4-6-8.3-6-13.7V71h37.5l30.6,30.6c9.8,9.8,15.3,23,15.3,36.8l0,0
		c0,10.1-7.8,18.8-17.9,19.3c-5.8,0.3-10.9-2.1-14.6-5.9L198.9,106.8z"/>
	<path class="st10" d="M211.7,111.9L211.7,111.9c-10.4,0-18.8-8.4-18.8-18.8V60.9c0-10.4,8.4-18.8,18.8-18.8l0,0
		c10.4,0,18.8,8.4,18.8,18.8v32.2C230.4,103.5,222,111.9,211.7,111.9z"/>
	
		<linearGradient id="SVGID_10_" gradientUnits="userSpaceOnUse" x1="211.658" y1="492.9" x2="230.413" y2="492.9" gradientTransform="matrix(1 0 0 -1 0 570)">
		<stop  offset="0" style="stop-color:#CCCCCC"/>
		<stop  offset="1" style="stop-color:#666666"/>
	</linearGradient>
	<path class="st11" d="M211.7,42.2v69.7c10.4,0,18.8-8.4,18.8-18.8V60.9C230.4,50.6,222,42.2,211.7,42.2z"/>
	
		<linearGradient id="SVGID_11_" gradientUnits="userSpaceOnUse" x1="307.4975" y1="222.288" x2="270.2675" y2="259.5168" gradientTransform="matrix(1.0667 0 0 -1.0667 58.2275 361.4006)">
		<stop  offset="1.000000e-04" style="stop-color:#7B3157;stop-opacity:0"/>
		<stop  offset="1" style="stop-color:#7B3157"/>
	</linearGradient>
	<path class="st12" d="M335.2,106.8c-3.7-3.4-6-8.3-6-13.7V71h37.5l30.6,30.6c9.8,9.8,15.3,23,15.3,36.8l0,0
		c0,10.1-7.8,18.8-17.9,19.3c-5.8,0.3-10.9-2.1-14.6-5.9L335.2,106.8z"/>
	<g>
		<path class="st10" d="M348,111.9L348,111.9c-10.4,0-18.8-8.4-18.8-18.8V60.9c0-10.4,8.4-18.8,18.8-18.8l0,0
			c10.4,0,18.8,8.4,18.8,18.8v32.2C366.7,103.5,358.3,111.9,348,111.9z"/>
		
			<linearGradient id="SVGID_12_" gradientUnits="userSpaceOnUse" x1="347.968" y1="492.9" x2="366.723" y2="492.9" gradientTransform="matrix(1 0 0 -1 0 570)">
			<stop  offset="0" style="stop-color:#CCCCCC"/>
			<stop  offset="1" style="stop-color:#666666"/>
		</linearGradient>
		<path class="st13" d="M348,42.2v69.7c10.4,0,18.8-8.4,18.8-18.8V60.9C366.7,50.6,358.3,42.2,348,42.2z"/>
	</g>
</g>
</svg>
