<?xml version="1.0" encoding="utf-8"?>
<!-- Generator: Adobe Illustrator 23.0.0, SVG Export Plug-In . SVG Version: 6.00 Build 0)  -->
<svg version="1.1" id="Capa_1" xmlns="http://www.w3.org/2000/svg" xmlns:xlink="http://www.w3.org/1999/xlink" x="0px" y="0px"
	 viewBox="0 0 512 512" style="enable-background:new 0 0 512 512;" xml:space="preserve">
<style type="text/css">
	.st0{fill:url(#SVGID_1_);}
	.st1{fill:url(#SVGID_2_);}
	.st2{fill:url(#SVGID_3_);}
	.st3{fill:url(#SVGID_4_);}
	.st4{fill:url(#SVGID_5_);}
	.st5{fill:url(#SVGID_6_);}
	.st6{fill:url(#SVGID_7_);}
	.st7{fill:url(#SVGID_8_);}
	.st8{fill:url(#SVGID_9_);}
	.st9{fill:#CCCCCC;}
	.st10{fill:url(#SVGID_10_);}
	.st11{fill:url(#SVGID_11_);}
	.st12{fill:url(#SVGID_12_);}
</style>
<linearGradient id="SVGID_1_" gradientUnits="userSpaceOnUse" x1="136.9134" y1="5.7718" x2="375.0829" y2="535.0301">
	<stop  offset="0" style="stop-color:#885E69"/>
	<stop  offset="0.1293" style="stop-color:#855264"/>
	<stop  offset="0.4046" style="stop-color:#7F405D"/>
	<stop  offset="0.6903" style="stop-color:#7C3558"/>
	<stop  offset="1" style="stop-color:#7B3157"/>
</linearGradient>
<path class="st0" d="M453.5,43h-395c-11.1,0-20.1,9-20.1,20.1v414.6c0,11.1,9,20.1,20.1,20.1h395c11.1,0,20.1-9,20.1-20.1V63.1
	C473.6,52,464.6,43,453.5,43z"/>
<linearGradient id="SVGID_2_" gradientUnits="userSpaceOnUse" x1="70.884" y1="436.1869" x2="350.974" y2="738.9469" gradientTransform="matrix(1.0667 0 0 1.0667 31.6809 -253.2217)">
	<stop  offset="0" style="stop-color:#C2CECE"/>
	<stop  offset="1" style="stop-color:#97AAAA"/>
</linearGradient>
<path class="st1" d="M453.5,497.8h-395c-11.1,0-20.1-9-20.1-20.1V260h435.1v217.7C473.6,488.8,464.6,497.8,453.5,497.8z"/>
<linearGradient id="SVGID_3_" gradientUnits="userSpaceOnUse" x1="210.2917" y1="698.7515" x2="210.2917" y2="656.9715" gradientTransform="matrix(1.0667 0 0 1.0667 31.6809 -253.2217)">
	<stop  offset="0" style="stop-color:#C2CECE;stop-opacity:0"/>
	<stop  offset="0.179" style="stop-color:#AFBCBC;stop-opacity:0.179"/>
	<stop  offset="1" style="stop-color:#5B6A6A"/>
</linearGradient>
<path class="st2" d="M453.5,497.8h-395c-11.1,0-20.1-9-20.1-20.1v-42.2h435.1v42.2C473.6,488.8,464.6,497.8,453.5,497.8z"/>
<linearGradient id="SVGID_4_" gradientUnits="userSpaceOnUse" x1="35.0843" y1="494.9338" x2="484.4843" y2="697.3438" gradientTransform="matrix(1.0667 0 0 1.0667 31.6809 -253.2217)">
	<stop  offset="0" style="stop-color:#00A6F9"/>
	<stop  offset="1" style="stop-color:#0071E2"/>
</linearGradient>
<path class="st3" d="M491.9,448.9H20.1c-12.9,0-22.5-12-19.6-24.6l37.9-165.7h435.1l37.9,165.7C514.4,436.9,504.8,448.9,491.9,448.9
	z"/>
<linearGradient id="SVGID_5_" gradientUnits="userSpaceOnUse" x1="210.2916" y1="641.0615" x2="210.2916" y2="666.1815" gradientTransform="matrix(1.0667 0 0 1.0667 31.6809 -253.2217)">
	<stop  offset="1.000000e-04" style="stop-color:#7F405D"/>
	<stop  offset="1" style="stop-color:#763B61"/>
</linearGradient>
<path class="st4" d="M491.9,448.9H20.1c-12.9,0-22.5-12-19.6-24.6l37.9-165.7h435.1l37.9,165.7C514.4,436.9,504.8,448.9,491.9,448.9
	z"/>
<linearGradient id="SVGID_6_" gradientUnits="userSpaceOnUse" x1="295.4899" y1="565.0915" x2="10.7789" y2="280.3816" gradientTransform="matrix(1.0667 0 0 1.0667 31.6809 -253.2217)">
	<stop  offset="1.000000e-04" style="stop-color:#81455F"/>
	<stop  offset="1" style="stop-color:#613447"/>
</linearGradient>
<path class="st5" d="M491.9,448.9c12.9,0,22.5-12,19.6-24.6l-37.9-165.7H38.4l190.2,190.2H491.9z"/>
<linearGradient id="SVGID_7_" gradientUnits="userSpaceOnUse" x1="180.3424" y1="621.4675" x2="133.6925" y2="563.7175" gradientTransform="matrix(1.0667 0 0 1.0667 31.6809 -253.2217)">
	<stop  offset="0" style="stop-color:#C2CECE;stop-opacity:0"/>
	<stop  offset="0.179" style="stop-color:#AFBCBC;stop-opacity:0.179"/>
	<stop  offset="1" style="stop-color:#5B6A6A"/>
</linearGradient>
<path class="st6" d="M473.6,448.9H38.4v0.7l48.2,48.2h366.8c11.1,0,20.1-9,20.1-20.1V448.9z"/>
<g>
</g>
<linearGradient id="SVGID_8_" gradientUnits="userSpaceOnUse" x1="414.7049" y1="466.7845" x2="318.6049" y2="491.9045" gradientTransform="matrix(1.0667 0 0 1.0667 31.6809 -253.2217)">
	<stop  offset="1.000000e-04" style="stop-color:#7B3157;stop-opacity:0"/>
	<stop  offset="1" style="stop-color:#7B3157"/>
</linearGradient>
<path class="st7" d="M511.5,424.3l-37.9-165.6V63.1c0-11.1-9-20.1-20.1-20.1H444c11.1,0,20.1,9,20.1,20.1v195.6L502,424.3
	c2.9,12.6-6.7,24.6-19.6,24.6h9.5C504.8,448.9,514.4,436.9,511.5,424.3z"/>
<linearGradient id="SVGID_9_" gradientUnits="userSpaceOnUse" x1="178.37" y1="327.5814" x2="141.14" y2="290.3524" gradientTransform="matrix(1.0667 0 0 1.0667 31.6809 -253.2217)">
	<stop  offset="1.000026e-04" style="stop-color:#7B3157;stop-opacity:0"/>
	<stop  offset="1" style="stop-color:#7B3157"/>
</linearGradient>
<path class="st8" d="M170.9,78.8c-3.7-3.4-6-8.3-6-13.7V43h37.5L233,73.6c9.8,9.8,15.3,23,15.3,36.8l0,0c0,10.1-7.8,18.8-17.9,19.3
	c-5.8,0.3-10.9-2.1-14.6-5.9L170.9,78.8z"/>
<path class="st9" d="M183.7,83.9L183.7,83.9c-10.4,0-18.8-8.4-18.8-18.8V32.9c0-10.4,8.4-18.8,18.8-18.8l0,0
	c10.4,0,18.8,8.4,18.8,18.8v32.2C202.4,75.5,194,83.9,183.7,83.9z"/>
<linearGradient id="SVGID_10_" gradientUnits="userSpaceOnUse" x1="183.658" y1="49.023" x2="202.413" y2="49.023">
	<stop  offset="0" style="stop-color:#CCCCCC"/>
	<stop  offset="1" style="stop-color:#666666"/>
</linearGradient>
<path class="st10" d="M183.7,14.2v69.7c10.4,0,18.8-8.4,18.8-18.8V32.9C202.4,22.6,194,14.2,183.7,14.2z"/>
<linearGradient id="SVGID_11_" gradientUnits="userSpaceOnUse" x1="306.1579" y1="327.5835" x2="268.9279" y2="290.3546" gradientTransform="matrix(1.0667 0 0 1.0667 31.6809 -253.2217)">
	<stop  offset="1.000000e-04" style="stop-color:#7B3157;stop-opacity:0"/>
	<stop  offset="1" style="stop-color:#7B3157"/>
</linearGradient>
<path class="st11" d="M307.2,78.8c-3.7-3.4-6-8.3-6-13.7V43h37.5l30.6,30.6c9.8,9.8,15.3,23,15.3,36.8l0,0
	c0,10.1-7.8,18.8-17.9,19.3c-5.8,0.3-10.9-2.1-14.6-5.9L307.2,78.8z"/>
<g>
	<path class="st9" d="M320,83.9L320,83.9c-10.4,0-18.8-8.4-18.8-18.8V32.9c0-10.4,8.4-18.8,18.8-18.8l0,0c10.4,0,18.8,8.4,18.8,18.8
		v32.2C338.7,75.5,330.3,83.9,320,83.9z"/>
	<linearGradient id="SVGID_12_" gradientUnits="userSpaceOnUse" x1="319.968" y1="49.023" x2="338.723" y2="49.023">
		<stop  offset="0" style="stop-color:#CCCCCC"/>
		<stop  offset="1" style="stop-color:#666666"/>
	</linearGradient>
	<path class="st12" d="M320,14.2v69.7c10.4,0,18.8-8.4,18.8-18.8V32.9C338.7,22.6,330.3,14.2,320,14.2z"/>
</g>
</svg>
